<svg width="100" height="100" fill="none" xmlns="http://www.w3.org/2000/svg"><circle cx="50" cy="50" r="50" fill="#FF7500" fill-opacity=".2"/><path fill-rule="evenodd" clip-rule="evenodd" d="M36 27.6c1.5 0 2.8 1.3 2.8 2.8v2.8h2.8a2.8 2.8 0 1 1 0 5.6h-2.8v2.8a2.8 2.8 0 1 1-5.6 0v-2.8h-2.8a2.8 2.8 0 1 1 0-5.6h2.8v-2.8c0-1.5 1.3-2.8 2.8-2.8Zm0 28c1.5 0 2.8 1.3 2.8 2.8v2.8h2.8a2.8 2.8 0 1 1 0 5.6h-2.8v2.8a2.8 2.8 0 1 1-5.6 0v-2.8h-2.8a2.8 2.8 0 1 1 0-5.6h2.8v-2.8c0-1.5 1.3-2.8 2.8-2.8ZM55.6 27.6c1.3 0 2.4.9 2.7 2l3.3 12.6 9.4 5.4a2.8 2.8 0 0 1 0 4.8l-9.4 5.4-3.3 12.5a2.8 2.8 0 0 1-5.4 0l-3.3-12.5-9.4-5.4a2.8 2.8 0 0 1 0-4.8l9.4-5.4 3.3-12.5c.3-1.2 1.4-2.1 2.7-2.1Z" fill="#FF7500"/></svg>